<?xml version="1.0" encoding="utf-8"?>
<!-- Generator: Adobe Illustrator 15.0.0, SVG Export Plug-In . SVG Version: 6.00 Build 0)  -->
<!DOCTYPE svg PUBLIC "-//W3C//DTD SVG 1.1//EN" "http://www.w3.org/Graphics/SVG/1.1/DTD/svg11.dtd">
<svg version="1.1" id="Layer_1" xmlns="http://www.w3.org/2000/svg" xmlns:xlink="http://www.w3.org/1999/xlink" x="0px" y="0px"
	 width="26px" height="26px" viewBox="0 0 26 26" enable-background="new 0 0 26 26" xml:space="preserve">
<path d="M23.712,1.214H3.035c-0.8,0-1.448,0.648-1.448,1.448v20.677c0,0.8,0.648,1.447,1.448,1.447h20.677
	c0.8,0,1.448-0.647,1.448-1.447V2.662C25.16,1.862,24.512,1.214,23.712,1.214z M17.154,3.463c-0.371-0.039-0.785,0.019-1.24,0.173
	c-0.456,0.154-0.726,0.378-0.809,0.673c-0.083,0.294-0.125,0.993-0.125,2.095v13.058c0,1.179,0.048,1.9,0.145,2.163
	s0.282,0.48,0.558,0.653c0.276,0.173,0.766,0.26,1.472,0.26v0.289H9.594v-0.289c0.949,0,1.54-0.183,1.77-0.548
	c0.231-0.364,0.347-1.195,0.347-2.489V6.654c0-1.346-0.128-2.227-0.385-2.643c-0.256-0.417-0.834-0.599-1.731-0.548V3.174h7.561
	V3.463z"/>
</svg>
