<?xml version="1.0" encoding="UTF-8" standalone="no"?>
<svg
   xmlns:dc="http://purl.org/dc/elements/1.1/"
   xmlns:cc="http://creativecommons.org/ns#"
   xmlns:rdf="http://www.w3.org/1999/02/22-rdf-syntax-ns#"
   xmlns:svg="http://www.w3.org/2000/svg"
   xmlns="http://www.w3.org/2000/svg"
   xmlns:sodipodi="http://sodipodi.sourceforge.net/DTD/sodipodi-0.dtd"
   xmlns:inkscape="http://www.inkscape.org/namespaces/inkscape"
   height="1000"
   width="1136"
   id="svg2"
   version="1.1"
   inkscape:version="0.48.4 r9939"
   sodipodi:docname="pocket.svg">
  <metadata
     id="metadata10">
    <rdf:RDF>
      <cc:Work
         rdf:about="">
        <dc:format>image/svg+xml</dc:format>
        <dc:type
           rdf:resource="http://purl.org/dc/dcmitype/StillImage" />
      </cc:Work>
    </rdf:RDF>
  </metadata>
  <defs
     id="defs8" />
  <sodipodi:namedview
     pagecolor="#ffffff"
     bordercolor="#666666"
     borderopacity="1"
     objecttolerance="10"
     gridtolerance="10"
     guidetolerance="10"
     inkscape:pageopacity="0"
     inkscape:pageshadow="2"
     inkscape:window-width="908"
     inkscape:window-height="800"
     id="namedview6"
     showgrid="false"
     inkscape:zoom="0.236"
     inkscape:cx="568"
     inkscape:cy="500"
     inkscape:window-x="425"
     inkscape:window-y="199"
     inkscape:window-maximized="0"
     inkscape:current-layer="svg2" />
  <path
     d="M 48.590608,345.75525 Q 41.594326,145.33638 59.31824,94.066443 q 3.73135,-8.38963 8.861956,-14.4488 5.130607,-6.05918 13.059727,-11.652265 7.92912,-5.593084 12.59331,-8.855717 4.66418,-3.262633 16.324647,-9.321808 11.66047,-6.059175 15.39182,-7.923537 126.86591,0 360.0753,-1.864361 233.20939,-1.864362 306.90356,-1.864362 l 87.68673,0 q 0,0 51.30607,0.466091 51.30602,0.46609 52.70532,2.330452 1.3993,1.864361 41.97772,5.593084 40.5784,3.728723 30.3172,9.321808 14.9254,8.389627 25.1866,22.372335 10.2612,13.98272 15.3918,27.499337 5.1306,13.51662 6.9963,37.28723 1.8657,23.77061 1.8657,39.15159 0,15.38098 -0.4664,46.60904 -0.4664,31.22806 -0.4664,46.14295 0,192.96142 -21.4553,304.82312 -21.4553,111.86169 -89.55242,198.5545 -65.29864,82.03191 -153.45179,130.03922 -88.15315,48.00731 -180.03765,58.2613 -91.8845,10.25403 -186.56751,-10.25399 Q 379.28152,935.82568 299.99033,887.81837 220.69913,839.81106 159.13186,763.83833 97.564583,687.8656 69.579453,594.64752 55.586889,546.17412 48.590608,345.75525 z M 264.5425,343.89089 q -24.25378,26.10106 13.99256,83.43018 38.24634,57.32912 97.01511,115.12432 1.86567,1.86437 36.84708,37.28724 34.98141,35.42287 49.90681,48.4734 14.9254,13.05053 43.84337,33.09241 28.91796,20.04189 53.17174,26.56716 10.26121,2.79654 20.98884,2.79654 10.72764,0 18.19034,-0.93218 7.4627,-0.93218 18.19033,-6.05918 10.72763,-5.12699 14.9254,-6.99135 4.19777,-1.86436 14.45898,-10.72008 10.26122,-8.85572 11.19405,-9.7879 0.93284,-0.93218 11.19405,-10.25399 l 2.79852,-2.79654 q 8.39553,-8.38963 56.43667,-52.20213 48.04113,-43.81249 80.22403,-75.04055 32.1829,-31.22805 62.96653,-73.64228 30.78364,-42.41423 32.64932,-70.37965 -13.99256,-37.28723 -35.44783,-52.20212 -21.45526,-14.9149 -47.10829,-7.92354 -25.65304,6.99136 -52.23891,24.2367 -26.58587,17.24534 -55.03741,44.74468 -28.45155,27.49933 -52.23891,52.20212 -23.78736,24.70279 -46.17546,47.54122 -22.3881,22.83843 -34.51499,30.29588 -25.18661,-14.9149 -67.63072,-55.46476 -42.44411,-40.54986 -76.49268,-76.43882 -34.04857,-35.88896 -68.56356,-59.65957 -34.51499,-23.77061 -51.30607,-13.51662 -23.32094,13.98271 -52.2389,38.21941 z"
     id="path4"
     style="fill:#ff5555"
     inkscape:connector-curvature="0" />
</svg>
